<?xml version="1.0"?>
<svg id="Camada_2" data-name="Camada 2" xmlns="http://www.w3.org/2000/svg" xmlns:xlink="http://www.w3.org/1999/xlink" viewBox="0 0 337.9 69.96">
  <defs>
    
    <linearGradient id="Gradiente_sem_nome_2" data-name="Gradiente sem nome 2" x1="322.32" y1="-.21" x2="341.69" y2="10.97" gradientUnits="userSpaceOnUse">
      <stop offset="0" stop-color="#edd677"></stop>
      <stop offset=".47" stop-color="#dbb44e"></stop>
      <stop offset="1" stop-color="#5b451e"></stop>
    </linearGradient>
    <linearGradient id="Gradiente_sem_nome_2-2" data-name="Gradiente sem nome 2" x1="213.03" y1="34.45" x2="287.3" y2="34.45" xlink:href="#Gradiente_sem_nome_2"></linearGradient>
  </defs>
  <g id="Camada_1-2" data-name="Camada 1">
    <g>
      <path class="cls-1" d="M322.17.04c10.49,1.75,14.63,8.64,15.73,17.48V.04h-15.73Z"></path>
      <path class="cls-3" d="M261.37,0h-22.42l-25.93,68.91h20.14l3.41-9.92h27.17l3.41,9.92h20.14L261.37,0ZM241.43,43.49l8.79-25.93,8.67,25.93h-17.46Z"></path>
      <path class="cls-2" d="M335.32,21.02c-.79-11.09-8.43-20.14-21.88-20.96-.66-.04-1.32-.06-2-.06h-50.06l25.93,68.91,7.4-.03v-23.13h16.73c15.48,0,23.95-10.43,23.95-22.82,0-.65-.03-1.28-.07-1.91ZM308.74,30.26h-14.04v-14.77h14.04c1.74,0,3.35.36,4.69,1.05,1.81.92,3.15,2.43,3.65,4.47.15.59.23,1.23.23,1.91,0,4.64-3.82,7.33-8.57,7.33ZM10.64,19.35c0-6.26,5.77-10.54,13.62-10.54,7.26,0,14.22,2.39,19.19,7.95l4.97-6.07C42.86,4.83,35,1.35,24.96,1.35,11.83,1.35,2.09,8.9,2.09,19.84c0,23.67,39.28,14.12,39.28,31.22,0,5.17-3.78,11.53-15.61,11.53-9.35,0-16.51-4.57-20.78-9.55l-4.97,6.36c5.47,6.16,14.02,10.54,25.46,10.54,17.9,0,24.46-9.94,24.46-19.49,0-24.76-39.28-16.21-39.28-31.12ZM55.19,68.76h43.45v-7.36h-35.2v-22.87h34.5v-7.36h-34.5V9.8h35.2V2.44h-43.45v66.32ZM131.65,48.68c0,8.25-5.17,13.92-13.32,13.92-5.77,0-9.65-3.08-12.43-6.56l-4.38,6.26c4.57,5.37,10.34,7.66,17.3,7.66,11.83,0,21.08-6.86,21.08-21.18V2.44h-8.25v46.24ZM168.34,2.44l-26.75,66.32h9.45l5.87-14.82h33.01l5.87,14.82h9.45L178.58,2.44h-10.24ZM159.39,46.69l14.02-35.8,14.12,35.8h-28.14Z"></path>
    </g>
  </g>
</svg>